<svg xmlns="http://www.w3.org/2000/svg" viewBox="0 0 120 120" width="24" height="24">
  <circle cx="60" cy="60" r="60" fill="#EE4D2D"/>
  <path d="M60 25C46.2 25 35 36.2 35 50v3.3c0 1.8 1.5 3.3 3.3 3.3 1.8 0 3.3-1.5 3.3-3.3V50c0-10.1 8.2-18.3 18.3-18.3S78.3 39.9 78.3 50v3.3c0 1.8 1.5 3.3 3.3 3.3 1.8 0 3.3-1.5 3.3-3.3V50C85 36.2 73.8 25 60 25z" fill="white"/>
  <path d="M60 55c-16.6 0-28.3 5.7-28.3 22.5C31.7 97.8 42.3 100 60 100s28.3-2.2 28.3-22.5C88.3 60.7 76.6 55 60 55zm0 35c-5.5 0-10-4.5-10-10s4.5-10 10-10 10 4.5 10 10-4.5 10-10 10z" fill="white"/>
</svg>
